<svg height="34.666668" viewBox="0 0 53.333332 34.666668" width="53.333332" xmlns="http://www.w3.org/2000/svg"><g transform="matrix(.13333333 0 0 -.13333333 0 34.666667)"><path d="m400 0h-400v260h400z" fill="#eee"/><path d="m400 123.699s-121.094-85.4568-342.8906-123.699h342.8906z" fill="#eb8518"/><g fill="#333"><path d="m57.5234 165.047c-3.2812-2.965-7.539-4.246-14.2929-4.246h-2.8008v35.39h2.8008c6.7539 0 10.8437-1.211 14.2929-4.328 3.6094-3.218 5.7813-8.191 5.7813-13.328s-2.1719-10.262-5.7813-13.488zm-12.1992 40.219h-15.3242v-53.528h15.25c8.1094 0 13.9531 1.907 19.1016 6.184 6.1015 5.039 9.7109 12.664 9.7109 20.547 0 15.789-11.8008 26.797-28.7383 26.797"/><path d="m80.0391 151.738h10.4492v53.528h-10.4492z"/><path d="m120.406 184.727c-6.265 2.312-8.109 3.847-8.109 6.738 0 3.371 3.273 5.93 7.777 5.93 3.129 0 5.696-1.282 8.41-4.34l5.465 7.152c-4.476 3.934-9.855 5.938-15.726 5.938-9.469 0-16.696-6.575-16.696-15.344 0-7.363 3.368-11.133 13.176-14.668 4.086-1.445 6.164-2.403 7.223-3.055 2.074-1.359 3.117-3.293 3.117-5.531 0-4.332-3.441-7.547-8.102-7.547-4.984 0-8.992 2.488-11.394 7.129l-6.7501-6.484c4.8201-7.059 10.5941-10.196 18.5431-10.196 10.848 0 18.457 7.207 18.457 17.571 0 8.515-3.516 12.363-15.391 16.707"/><path d="m139.77 178.469c0-15.735 12.359-27.942 28.257-27.942 4.493 0 8.352.879 13.086 3.118v12.293c-4.179-4.168-7.867-5.86-12.597-5.86-10.52 0-17.985 7.617-17.985 18.457 0 10.274 7.696 18.387 17.496 18.387 4.981 0 8.754-1.774 13.086-6.024v12.286c-4.586 2.324-8.355 3.293-12.843 3.293-15.813 0-28.5-12.442-28.5-28.008"/><path d="m263.895 169.316-14.266 35.95h-11.406l22.707-54.895h5.625l23.113 54.895h-11.309z"/><path d="m294.395 151.738h29.609v9.063h-19.18v14.441h18.477v9.074h-18.477v11.875h19.18v9.075h-29.609z"/><path d="m344.402 180.613h-3.054v16.223h3.222c6.485 0 10.02-2.734 10.02-7.938 0-5.382-3.535-8.285-10.188-8.285zm20.942 8.852c0 10.008-6.906 15.801-18.938 15.801h-15.488v-53.528h10.43v21.492h1.367l14.433-21.492h12.852l-16.855 22.551c7.871 1.602 12.199 6.973 12.199 15.176"/></g><path d="m239.512 178.145c0-15.547-12.598-28.145-28.145-28.145-15.543 0-28.14 12.598-28.14 28.145 0 15.558 12.597 28.144 28.14 28.144 15.547 0 28.145-12.586 28.145-28.144" fill="#eb8518"/></g></svg>