<?xml version="1.0" encoding="utf-8"?>
<!-- Generator: Adobe Illustrator 19.0.0, SVG Export Plug-In . SVG Version: 6.00 Build 0)  -->
<svg version="1.1" id="layer" xmlns="http://www.w3.org/2000/svg" xmlns:xlink="http://www.w3.org/1999/xlink" x="0px" y="0px"
	 viewBox="-153 -46 652 652" style="enable-background:new -153 -46 652 652;" xml:space="preserve">
<style type="text/css">
	.st0{fill:#008FB4;}
</style>
<path class="st0" d="M468.4,276l-0.1-19.2c-3.7,0.2-15,1.7-20,7.7v-6.4h-20.9v64h20.9v-29.7c0-0.2,0-0.3,0-0.5
	C451.3,277.6,464.9,276.1,468.4,276 M280.2,276.8c-2.6-2.5-5.3-3.7-7.6-4.8c-2.3-1.1-4.8-1.7-7.4-1.7c-2,0-3.8,0.4-5.5,1.2
	c-1.7,0.8-2.5,2.1-2.5,4c0,1.8,0.9,3.1,2.8,3.9c1.9,0.8,4.9,1.6,9,2.6c2.4,0.5,4.9,1.2,7.3,2.2c2.4,0.9,4.6,2.2,6.7,3.8
	c2,1.5,3.6,3.5,4.8,5.7c1.2,2.2,1.8,4.9,1.8,8c0,4.1-0.8,7.5-2.5,10.3c-1.6,2.7-3.8,5.1-6.4,6.8c-2.7,1.8-5.7,3-8.9,3.8
	c-3.2,0.8-6.5,1.2-9.8,1.2c-5.3,0-10.4-0.8-15.5-2.5c-5-1.7-9.3-4.2-12.6-7.4l10.4-13c1.9,2.1,5.8,4.3,8.5,5.7
	c2.7,1.4,5.7,2.1,8.8,2.1c1.7,0,3.4-0.4,5.1-1.2c1.7-0.8,2.5-2.3,2.5-4.3c0-2-1-3.4-3.1-4.4c-2.1-0.9-5.3-1.9-9.7-3
	c-2.3-0.5-4.5-1.2-6.7-2.1c-2.2-0.8-4.2-2-6-3.5c-1.8-1.5-3.3-3.4-4.3-5.4c-1.1-2.2-1.7-4.7-1.7-7.8c0-3.9,0.8-7.2,2.5-9.9
	c1.6-2.7,3.8-4.9,6.3-6.7c2.6-1.7,5.5-3,8.6-3.8c3.1-0.8,6.2-1.2,9.4-1.2c4.8,0,9.6,0.8,14.2,2.3c4.6,1.5,8.5,3.8,11.7,6.8
	L280.2,276.8 M403.2,281.8c-0.1-3-1.2-5.8-3.1-8c-2.1-2.4-5.2-3.6-9.4-3.6c-2,0-3.9,0.3-5.6,1c-1.7,0.6-3.2,1.5-4.5,2.6
	c-1.3,1.1-2.3,2.4-3.1,3.9c-0.7,1.3-1.1,2.7-1.2,4.1H403.2z M422.5,290.4v2.6c0,0.9,0,1.7-0.1,2.4h-46.2c0.2,1.8,0.7,3.4,1.6,4.9
	c0.9,1.5,2,2.7,3.5,3.8c1.4,1.1,3,1.9,4.7,2.5c1.7,0.6,3.6,0.9,5.4,0.9c3.3,0,6.1-0.6,8.5-1.9c2.2-1.2,4.1-2.8,5.6-4.8l14.6,9.2
	c-3,4.3-7.1,7.8-11.8,10c-4.9,2.3-10.6,3.5-17.1,3.5c-4.6,0-9.2-0.7-13.6-2.2c-4.1-1.4-7.9-3.6-11.2-6.5c-3.3-2.9-5.8-6.5-7.5-10.6
	c-1.8-4.2-2.8-9-2.8-14.3c0-5.2,0.9-9.9,2.7-14.1c1.8-4.2,4.2-7.8,7.3-10.7c3.1-3,6.8-5.3,10.9-6.8c4.2-1.6,8.7-2.4,13.6-2.4
	c4.7,0,9,0.8,12.9,2.4c3.8,1.5,7.3,3.9,10.1,6.8c2.8,3,5,6.6,6.6,10.9C421.7,280.1,422.5,285,422.5,290.4z M169.5,275.4v-19.3h-18
	v-14.3c-0.5-8.3-4.4-14.4-20.3-14.4v74.5c0,3.3,0.4,6.2,1.2,8.8c0.7,2.6,1.9,4.9,3.6,6.8c1.7,1.9,3.9,3.4,6.6,4.4
	c2.8,1,6.9,1.5,11,1.5c6.3,0,10.6-0.9,15.9-2.6v-17c0,0-5,1.4-10.4,1.4c-2.9,0-4.8-0.7-5.9-2.1c-1.1-1.4-1.6-3.6-1.6-6.4v-21.2
	H169.5 M338,288l23.7-30h-25.2l-20.9,26.4v-42.1c-0.4-8.5-4.1-14.8-20.3-14.8v94.8h20.3v-30.6l24,30.6h25.4L338,288 M230.1,322.1
	v-42.4c0-18.2-14.5-24.8-27.3-24.8c-13.9,0-22.3,4.4-27.9,9.1l10.6,13.2c3.5-3.3,10.5-6.6,15.2-6.6c7.7,0,9.3,4.4,9.3,10.1v1.1h-6.9
	c-17.8,0-28.5,7.7-28.5,21.5c0,15,13.2,19,29.3,19C203.9,322.1,230.1,322.1,230.1,322.1z M210.1,308.8c-2.2,0-4.8,0-6.7,0
	c-5.2-0.1-8.4-2.2-8.4-6.6c0-4.5,3.2-7.1,9.6-7.1h5.5V308.8z M57.3,239c0,6.6,5.5,11.8,11.6,11.8c6.5,0,11.7-5.2,11.8-11.7
	c0,0,0,0,0-0.1c0-6.5-5.3-11.6-11.8-11.6C62.7,227.4,57.3,232.5,57.3,239 M59.2,256.3h-0.8v65.9h21.1v-52
	C78.9,262.2,74.8,256.3,59.2,256.3 M126.4,276l-0.1-19.2c-3.7,0.2-15,1.7-20,7.7v-6.4H85.5v64h20.9v-29.7c0-0.2,0-0.3,0-0.5
	C109.4,277.6,123,276.1,126.4,276 M462.3,312.5h-1.2v2.2h1.2c0.7,0,1.2-0.5,1.2-1.1C463.4,313,463,312.5,462.3,312.5z M463.4,318.7
	l-1.4-2.9h-0.9v2.9h-1.3v-7.3h2.7c1.2,0,2.2,0.9,2.3,2.2c0,0,0,0,0,0.1c0,1-0.6,1.7-1.4,2l1.6,3.1L463.4,318.7L463.4,318.7z
	 M462,309.5c-2.9,0-5.2,2.4-5.2,5.5c0,3.1,2.3,5.5,5.2,5.5c2.9,0,5.2-2.4,5.2-5.5C467.3,311.9,465,309.5,462,309.5z M462,321.8
	c-3.6,0-6.5-3-6.5-6.8c0-3.7,2.9-6.8,6.5-6.8c3.6,0,6.5,3,6.5,6.8C468.6,318.8,465.7,321.8,462,321.8z M-0.7,285l9.4-27.1l9.4,27.1
	C18.1,285-0.7,285-0.7,285z M18.7,227.4h-19l-29,77.1h-11.6c-9.1,0-17-2-22.3-5.6c-5.5-3.7-8.1-9-8.1-16.2v-8.9h-9.3
	c-0.4,0-13.9,0-23.5-9.5c-4.8-4.8-7.9-11.2-9.1-19.3h65.3c11.9,0,16.2,5.8,19,11c1.4,2.6,2.4,5.4,3.1,8.2l8.2-21.7
	c0,0-6.9-15.1-30.2-15.1h-83.5v8.8c0,17.2,5,30.8,15,40.6c9.3,9.2,20.8,12.6,28.3,13.9c3.8,19.3,21.5,31.3,47.2,31.3h26.8l6.1-17.4
	l33.4,0l6.1,17.4h22.9L18.7,227.4z"/>
</svg>
